<svg xmlns="http://www.w3.org/2000/svg" viewBox="0 0 254.49 233.19"><defs><style>.cls-1{font-size:38.99px;font-family:LouisGeorgeCafe-Bold, Louis George Café;}.cls-1,.cls-7{fill:#fff;}.cls-2,.cls-4{font-weight:700;}.cls-3,.cls-5,.cls-6{font-family:LouisGeorgeCafeLight, Louis George Café Light;}.cls-4{font-size:43.32px;}.cls-5{font-size:38.12px;}.cls-6{font-size:25.99px;}</style></defs><title>blanc</title><g id="Calque_2" data-name="Calque 2"><g id="Calque_1-2" data-name="Calque 1"><text class="cls-1" transform="translate(0 211.85)"><tspan class="cls-2">My</tspan><tspan class="cls-3" x="57.09" y="0">Net</tspan><tspan class="cls-4" x="115" y="0">Sale</tspan><tspan class="cls-5" x="197.53" y="0"> </tspan><tspan class="cls-6" x="206.99" y="0">com</tspan></text><path class="cls-7" d="M1,225h.59v7.6h3.7v.48H1Z" transform="translate(-0.69)"/><path class="cls-7" d="M11.58,225v4.88c0,2.05,1,2.85,2.21,2.85,1.37,0,2.32-.86,2.32-2.85V225h.59v4.83c0,2.48-1.37,3.39-2.94,3.39s-2.77-.83-2.77-3.3V225Z" transform="translate(-0.69)"/><path class="cls-7" d="M28.33,233.05l-1.26-2c-.51-.76-.81-1.22-1.09-1.68h0c-.27.47-.54.91-1.05,1.69l-1.19,2H23L25.67,229l-2.53-4h.68l1.33,2.16c.35.54.61,1,.86,1.39h0c.25-.46.51-.84.87-1.39L28.3,225H29l-2.65,3.94L29,233.05Z" transform="translate(-0.69)"/><path class="cls-7" d="M35.94,225v4.88c0,2.05,1,2.85,2.21,2.85,1.37,0,2.32-.86,2.32-2.85V225h.58v4.83c0,2.48-1.37,3.39-2.94,3.39s-2.76-.83-2.76-3.3V225Z" transform="translate(-0.69)"/><path class="cls-7" d="M48,225.08a9.37,9.37,0,0,1,1.79-.17,3.08,3.08,0,0,1,2.24.68,2,2,0,0,1,.57,1.44,2.14,2.14,0,0,1-1.62,2.1v0a2.06,2.06,0,0,1,1.28,1.71,10.5,10.5,0,0,0,.62,2.18H52.3a10.57,10.57,0,0,1-.53-2c-.26-1.17-.77-1.7-1.86-1.74h-1.3v3.7H48Zm.58,3.81h1.32c1.28,0,2.11-.7,2.11-1.77,0-1.24-.93-1.74-2.23-1.74a5.67,5.67,0,0,0-1.2.11Z" transform="translate(-0.69)"/><path class="cls-7" d="M61,233.05v-3.49L58.32,225H59l1.36,2.41c.35.63.65,1.16.94,1.74h0c.26-.55.6-1.11,1-1.75l1.42-2.4h.66l-2.8,4.6v3.48Z" transform="translate(-0.69)"/><path class="cls-7" d="M83.1,233.05l-.91-.91a3.52,3.52,0,0,1-2.52,1.05,2.25,2.25,0,0,1-2.34-2.26A2.74,2.74,0,0,1,79,228.55v0a3,3,0,0,1-.73-1.76,1.85,1.85,0,0,1,1.88-1.91,1.53,1.53,0,0,1,1.58,1.61c0,.86-.52,1.52-1.94,2.2v0c.85,1,1.81,2,2.42,2.7a6.25,6.25,0,0,0,.86-2.6h.55a6.1,6.1,0,0,1-1.08,2.93l1.32,1.33Zm-1.24-1.26c-.48-.54-1.56-1.68-2.61-2.89a2.32,2.32,0,0,0-1.33,2,1.81,1.81,0,0,0,1.88,1.86A2.74,2.74,0,0,0,81.86,231.79Zm-3-5.1a2.71,2.71,0,0,0,.67,1.63c1-.51,1.67-1,1.67-1.82A1.1,1.1,0,0,0,80,225.3,1.25,1.25,0,0,0,78.81,226.69Z" transform="translate(-0.69)"/><path class="cls-7" d="M97.47,225.08a13.52,13.52,0,0,1,2.13-.17,4.59,4.59,0,0,1,3.34,1.1,3.82,3.82,0,0,1,1,2.81,4.36,4.36,0,0,1-1.08,3.06,4.82,4.82,0,0,1-3.58,1.24,18.28,18.28,0,0,1-1.84-.07Zm.58,7.49a8.75,8.75,0,0,0,1.34.06c2.67,0,4-1.45,4-3.79,0-2.05-1.15-3.45-3.81-3.45a8,8,0,0,0-1.51.13Z" transform="translate(-0.69)"/><path class="cls-7" d="M114.31,229H111v3.53h3.71v.48h-4.3V225h4.1v.48H111v3.1h3.32Z" transform="translate(-0.69)"/><path class="cls-7" d="M120.84,232.16a3.36,3.36,0,0,0,1.81.54c1.24,0,2-.69,2-1.69s-.48-1.44-1.68-1.89-2.13-1.13-2.13-2.23a2.17,2.17,0,0,1,2.41-2,3.13,3.13,0,0,1,1.65.39l-.23.48a2.64,2.64,0,0,0-1.46-.39c-1.34,0-1.8.84-1.8,1.47,0,.9.54,1.36,1.73,1.81,1.36.54,2.09,1.15,2.09,2.36s-.86,2.22-2.63,2.22a3.79,3.79,0,0,1-2-.54Z" transform="translate(-0.69)"/><path class="cls-7" d="M132.36,225v8.08h-.58V225Z" transform="translate(-0.69)"/><path class="cls-7" d="M145.29,232.7a6.73,6.73,0,0,1-2.41.44,4.1,4.1,0,0,1-2.94-1.06,4.16,4.16,0,0,1-1.14-3,4,4,0,0,1,4.33-4.15,4.94,4.94,0,0,1,1.93.36l-.19.47a4.23,4.23,0,0,0-1.77-.34,3.41,3.41,0,0,0-3.69,3.63,3.33,3.33,0,0,0,3.56,3.64,4.2,4.2,0,0,0,1.74-.28v-2.85h-1.92v-.47h2.5Z" transform="translate(-0.69)"/><path class="cls-7" d="M152,233.05V225h.56l3.23,4.78a24.89,24.89,0,0,1,1.56,2.54h0c-.08-1.09-.09-2-.09-3.29v-4h.57v8.08h-.55l-3.17-4.7a28.67,28.67,0,0,1-1.61-2.61h0c.07,1,.08,1.87.08,3.21v4.09Z" transform="translate(-0.69)"/><path class="cls-7" d="M172.47,225.06a10.63,10.63,0,0,1,1.77-.15,3.18,3.18,0,0,1,2.2.68,2.1,2.1,0,0,1,.64,1.58,2.23,2.23,0,0,1-.58,1.62,3.24,3.24,0,0,1-2.44.9,3.87,3.87,0,0,1-1-.09v3.45h-.59Zm.59,4a4,4,0,0,0,1.05.11c1.49,0,2.37-.7,2.37-2s-.94-1.84-2.26-1.84a6.8,6.8,0,0,0-1.16.09Z" transform="translate(-0.69)"/><path class="cls-7" d="M183.62,225.08a9.22,9.22,0,0,1,1.79-.17,3,3,0,0,1,2.23.68,2,2,0,0,1,.58,1.44,2.14,2.14,0,0,1-1.62,2.1v0a2.09,2.09,0,0,1,1.28,1.71,9.87,9.87,0,0,0,.62,2.18h-.61a9.79,9.79,0,0,1-.53-2c-.26-1.17-.77-1.7-1.86-1.74h-1.3v3.7h-.58Zm.58,3.81h1.32c1.28,0,2.11-.7,2.11-1.77,0-1.24-.94-1.74-2.23-1.74a5.59,5.59,0,0,0-1.2.11Z" transform="translate(-0.69)"/><path class="cls-7" d="M201.69,228.93c0,2.85-1.79,4.26-3.72,4.26s-3.62-1.57-3.62-4.1,1.65-4.25,3.72-4.25S201.69,226.43,201.69,228.93Zm-6.73.15c0,1.82,1.09,3.63,3,3.63s3.07-1.74,3.07-3.74c0-1.71-1-3.65-3.05-3.65S195,227.19,195,229.08Z" transform="translate(-0.69)"/><path class="cls-7" d="M208.12,225.08a13.62,13.62,0,0,1,2.13-.17,4.59,4.59,0,0,1,3.34,1.1,3.82,3.82,0,0,1,1,2.81,4.36,4.36,0,0,1-1.08,3.06,4.82,4.82,0,0,1-3.58,1.24,18.39,18.39,0,0,1-1.84-.07Zm.58,7.49a8.75,8.75,0,0,0,1.34.06c2.67,0,4-1.45,4-3.79,0-2.05-1.15-3.45-3.81-3.45a8,8,0,0,0-1.51.13Z" transform="translate(-0.69)"/><path class="cls-7" d="M221.64,225v4.88c0,2.05,1,2.85,2.21,2.85,1.37,0,2.32-.86,2.32-2.85V225h.59v4.83c0,2.48-1.37,3.39-2.95,3.39s-2.76-.83-2.76-3.3V225Z" transform="translate(-0.69)"/><path class="cls-7" d="M239.35,232.77a5.29,5.29,0,0,1-2.23.41,3.77,3.77,0,0,1-3.93-4.12,4,4,0,0,1,4.21-4.22,4.33,4.33,0,0,1,1.92.36l-.19.48a4.14,4.14,0,0,0-1.73-.35,3.39,3.39,0,0,0-3.6,3.74,3.29,3.29,0,0,0,3.5,3.62,4.52,4.52,0,0,0,1.88-.38Z" transform="translate(-0.69)"/><path class="cls-7" d="M247.76,225.45h-2.71V225h6v.48h-2.71v7.6h-.58Z" transform="translate(-0.69)"/><path class="cls-7" d="M139.53,94.14a1.56,1.56,0,0,1-.36,0A1.49,1.49,0,0,1,138,92.58C139.56,56.21,103.76,44,103.4,43.9a1.5,1.5,0,0,1,.93-2.85c.37.12,34.75,11.83,36.67,46.24,4.62-6.75,14.92-18.26,30.9-17.2-1.59-2.18-5-6.53-12.48-15.09a1.5,1.5,0,1,1,2.27-2C177,70.61,176.54,71.49,176.08,72.52a1.59,1.59,0,0,1-1.63.88c-22.14-3.55-33.1,18.92-33.56,19.88A1.51,1.51,0,0,1,139.53,94.14Z" transform="translate(-0.69)"/><path class="cls-7" d="M153.73,161.73a1.54,1.54,0,0,1-1.16-.54L118.9,120.92a1.49,1.49,0,0,1-.05-1.86c1.26-1.7,12.19-17.16,6.42-36.4-5.84-19.44-23.69-26.25-25.7-27-1-.31-2.56-.84-4.49-1.52-18.67-6.56-40.37-15.62-59.73-33.1-11.8-10.66-15.43-18.62-15.58-19A1.5,1.5,0,1,1,22.51.89c0,.09,3.59,7.78,14.85,18,19,17.13,40.32,26,58.71,32.5,1.91.67,3.48,1.19,4.46,1.52,2.2.77,21.35,8.08,27.61,28.93,5.58,18.59-3.37,33.89-6.2,38.09l32.94,39.38a1.5,1.5,0,0,1-1.15,2.47Z" transform="translate(-0.69)"/><circle class="cls-7" cx="201.24" cy="209.1" r="2.75"/></g></g></svg>